<svg xmlns="http://www.w3.org/2000/svg" xmlns:xlink="http://www.w3.org/1999/xlink" width="500" zoomAndPan="magnify" viewBox="0 0 375 374.999991" height="500" preserveAspectRatio="xMidYMid meet" version="1.0"><defs><filter x="0%" y="0%" width="100%" height="100%" id="4e7608d319"><feColorMatrix values="0 0 0 0 1 0 0 0 0 1 0 0 0 0 1 0 0 0 1 0" color-interpolation-filters="sRGB"/></filter><g/><clipPath id="5ddbf39568"><path d="M 34.5 0 L 340.5 0 C 359.554688 0 375 15.445312 375 34.5 L 375 340.5 C 375 359.554688 359.554688 375 340.5 375 L 34.5 375 C 15.445312 375 0 359.554688 0 340.5 L 0 34.5 C 0 15.445312 15.445312 0 34.5 0 Z M 34.5 0 " clip-rule="nonzero"/></clipPath><clipPath id="41d688d053"><path d="M 21.621094 43.601562 L 353.375 43.601562 L 353.375 276 L 21.621094 276 Z M 21.621094 43.601562 " clip-rule="nonzero"/></clipPath><clipPath id="a1f44792bf"><path d="M 124 316 L 251 316 L 251 331.433594 L 124 331.433594 Z M 124 316 " clip-rule="nonzero"/></clipPath><clipPath id="4b271eb237"><path d="M 120.375 120.375 L 165.125 120.375 L 165.125 165.125 L 120.375 165.125 Z M 120.375 120.375 " clip-rule="nonzero"/></clipPath><mask id="f82258c549"><g filter="url(#4e7608d319)"><rect x="-37.5" width="450" fill="#000000" y="-37.499999" height="449.999989" fill-opacity="0.7"/></g></mask><clipPath id="7834e078bb"><path d="M 0.375 0.875 L 45.125 0.875 L 45.125 45.625 L 0.375 45.625 Z M 0.375 0.875 " clip-rule="nonzero"/></clipPath><clipPath id="6266053819"><rect x="0" width="46" y="0" height="46"/></clipPath><mask id="c6f77c7881"><g filter="url(#4e7608d319)"><rect x="-37.5" width="450" fill="#000000" y="-37.499999" height="449.999989" fill-opacity="0.86"/></g></mask><clipPath id="b4561a51d0"><path d="M 0.125 0.125 L 44.875 0.125 L 44.875 44.875 L 0.125 44.875 Z M 0.125 0.125 " clip-rule="nonzero"/></clipPath><clipPath id="3b5ddc5337"><rect x="0" width="45" y="0" height="45"/></clipPath><clipPath id="731cea240b"><path d="M 209.875 120.375 L 254.625 120.375 L 254.625 165.125 L 209.875 165.125 Z M 209.875 120.375 " clip-rule="nonzero"/></clipPath><mask id="15984d5fe6"><g filter="url(#4e7608d319)"><rect x="-37.5" width="450" fill="#000000" y="-37.499999" height="449.999989" fill-opacity="0.59"/></g></mask><clipPath id="fc82b6ce6d"><path d="M 0.875 0.875 L 45.625 0.875 L 45.625 45.625 L 0.875 45.625 Z M 0.875 0.875 " clip-rule="nonzero"/></clipPath><clipPath id="933840e13e"><rect x="0" width="46" y="0" height="46"/></clipPath></defs><g clip-path="url(#5ddbf39568)"><rect x="-37.5" width="450" fill="#2f7ebe" y="-37.499999" height="449.999989" fill-opacity="1"/></g><g clip-path="url(#41d688d053)"><path fill="#ffffff" d="M 331.703125 275.25 L 43.296875 275.25 C 42.585938 275.246094 41.878906 275.210938 41.171875 275.140625 C 40.464844 275.070312 39.765625 274.96875 39.070312 274.828125 C 38.371094 274.6875 37.683594 274.515625 37.007812 274.308594 C 36.328125 274.101562 35.660156 273.863281 35.003906 273.59375 C 34.347656 273.320312 33.707031 273.015625 33.082031 272.683594 C 32.457031 272.347656 31.847656 271.984375 31.257812 271.589844 C 30.667969 271.195312 30.101562 270.769531 29.550781 270.320312 C 29.003906 269.871094 28.476562 269.394531 27.976562 268.894531 C 27.472656 268.390625 27 267.867188 26.546875 267.316406 C 26.097656 266.769531 25.675781 266.199219 25.28125 265.609375 C 24.886719 265.019531 24.523438 264.410156 24.1875 263.785156 C 23.851562 263.160156 23.550781 262.519531 23.277344 261.863281 C 23.003906 261.210938 22.765625 260.542969 22.558594 259.863281 C 22.351562 259.183594 22.179688 258.496094 22.042969 257.800781 C 21.902344 257.105469 21.796875 256.402344 21.726562 255.699219 C 21.65625 254.992188 21.621094 254.285156 21.621094 253.574219 L 21.621094 65.324219 C 21.621094 64.617188 21.65625 63.90625 21.726562 63.203125 C 21.796875 62.496094 21.902344 61.792969 22.039062 61.097656 C 22.179688 60.402344 22.351562 59.714844 22.558594 59.035156 C 22.765625 58.355469 23.003906 57.691406 23.277344 57.035156 C 23.546875 56.378906 23.851562 55.738281 24.1875 55.113281 C 24.519531 54.488281 24.886719 53.878906 25.28125 53.289062 C 25.675781 52.699219 26.097656 52.128906 26.546875 51.582031 C 26.996094 51.03125 27.472656 50.507812 27.976562 50.003906 C 28.476562 49.503906 29.003906 49.027344 29.550781 48.578125 C 30.097656 48.125 30.667969 47.703125 31.257812 47.308594 C 31.847656 46.914062 32.457031 46.550781 33.082031 46.214844 C 33.707031 45.882812 34.347656 45.578125 35.003906 45.304688 C 35.660156 45.035156 36.328125 44.792969 37.003906 44.589844 C 37.683594 44.382812 38.371094 44.210938 39.066406 44.070312 C 39.765625 43.929688 40.464844 43.828125 41.171875 43.757812 C 41.878906 43.6875 42.585938 43.648438 43.296875 43.648438 L 331.703125 43.648438 C 332.414062 43.648438 333.121094 43.6875 333.828125 43.757812 C 334.535156 43.828125 335.234375 43.929688 335.929688 44.070312 C 336.628906 44.210938 337.316406 44.382812 337.992188 44.589844 C 338.671875 44.792969 339.339844 45.035156 339.996094 45.304688 C 340.652344 45.578125 341.292969 45.882812 341.917969 46.214844 C 342.542969 46.550781 343.152344 46.914062 343.742188 47.308594 C 344.332031 47.703125 344.898438 48.125 345.449219 48.578125 C 345.996094 49.027344 346.523438 49.503906 347.023438 50.003906 C 347.527344 50.507812 348 51.03125 348.453125 51.582031 C 348.902344 52.128906 349.324219 52.699219 349.71875 53.289062 C 350.113281 53.878906 350.476562 54.488281 350.8125 55.113281 C 351.148438 55.738281 351.449219 56.378906 351.722656 57.035156 C 351.996094 57.691406 352.234375 58.355469 352.441406 59.035156 C 352.648438 59.714844 352.820312 60.402344 352.957031 61.097656 C 353.097656 61.792969 353.203125 62.496094 353.273438 63.203125 C 353.34375 63.90625 353.378906 64.617188 353.378906 65.324219 L 353.378906 253.574219 C 353.378906 254.285156 353.34375 254.992188 353.273438 255.699219 C 353.203125 256.402344 353.097656 257.105469 352.957031 257.800781 C 352.820312 258.496094 352.644531 259.183594 352.441406 259.863281 C 352.234375 260.542969 351.992188 261.210938 351.722656 261.863281 C 351.449219 262.519531 351.148438 263.160156 350.8125 263.785156 C 350.476562 264.410156 350.113281 265.019531 349.71875 265.609375 C 349.324219 266.199219 348.902344 266.769531 348.453125 267.316406 C 348 267.867188 347.523438 268.390625 347.023438 268.894531 C 346.519531 269.394531 345.996094 269.871094 345.449219 270.320312 C 344.898438 270.769531 344.328125 271.195312 343.738281 271.589844 C 343.148438 271.984375 342.542969 272.347656 341.917969 272.683594 C 341.289062 273.015625 340.648438 273.320312 339.996094 273.59375 C 339.339844 273.863281 338.671875 274.101562 337.992188 274.308594 C 337.3125 274.515625 336.625 274.6875 335.929688 274.828125 C 335.234375 274.96875 334.535156 275.070312 333.828125 275.140625 C 333.121094 275.210938 332.414062 275.246094 331.703125 275.25 Z M 43.296875 58.144531 C 42.824219 58.144531 42.355469 58.191406 41.894531 58.285156 C 41.433594 58.375 40.984375 58.511719 40.550781 58.695312 C 40.113281 58.875 39.699219 59.097656 39.308594 59.359375 C 38.917969 59.621094 38.554688 59.917969 38.222656 60.25 C 37.886719 60.585938 37.589844 60.945312 37.328125 61.339844 C 37.066406 61.730469 36.84375 62.144531 36.664062 62.578125 C 36.484375 63.015625 36.347656 63.464844 36.253906 63.925781 C 36.164062 64.386719 36.117188 64.855469 36.117188 65.324219 L 36.117188 253.574219 C 36.117188 254.046875 36.164062 254.511719 36.253906 254.972656 C 36.347656 255.4375 36.484375 255.886719 36.664062 256.320312 C 36.84375 256.753906 37.066406 257.167969 37.328125 257.558594 C 37.589844 257.953125 37.886719 258.316406 38.222656 258.648438 C 38.554688 258.980469 38.917969 259.277344 39.308594 259.539062 C 39.699219 259.800781 40.113281 260.023438 40.550781 260.203125 C 40.984375 260.382812 41.433594 260.519531 41.894531 260.613281 C 42.355469 260.707031 42.824219 260.75 43.296875 260.753906 L 331.703125 260.753906 C 332.175781 260.75 332.640625 260.707031 333.105469 260.613281 C 333.566406 260.519531 334.015625 260.382812 334.449219 260.203125 C 334.886719 260.023438 335.300781 259.800781 335.691406 259.539062 C 336.082031 259.277344 336.445312 258.980469 336.777344 258.648438 C 337.113281 258.316406 337.410156 257.953125 337.671875 257.558594 C 337.933594 257.167969 338.15625 256.753906 338.335938 256.320312 C 338.515625 255.886719 338.652344 255.4375 338.746094 254.972656 C 338.835938 254.511719 338.882812 254.046875 338.882812 253.574219 L 338.882812 65.324219 C 338.882812 64.855469 338.835938 64.386719 338.746094 63.925781 C 338.652344 63.464844 338.515625 63.015625 338.335938 62.578125 C 338.15625 62.144531 337.933594 61.730469 337.671875 61.339844 C 337.410156 60.945312 337.113281 60.582031 336.777344 60.25 C 336.445312 59.917969 336.082031 59.621094 335.691406 59.359375 C 335.300781 59.097656 334.886719 58.875 334.449219 58.695312 C 334.015625 58.511719 333.566406 58.375 333.105469 58.285156 C 332.640625 58.191406 332.175781 58.144531 331.703125 58.144531 Z M 43.296875 58.144531 " fill-opacity="1" fill-rule="nonzero"/></g><path fill="#ffffff" d="M 159.328125 267.769531 L 215.671875 267.769531 L 215.671875 324.109375 L 159.328125 324.109375 Z M 159.328125 267.769531 " fill-opacity="1" fill-rule="nonzero"/><g clip-path="url(#a1f44792bf)"><path fill="#ffffff" d="M 242.921875 331.359375 L 132.078125 331.359375 C 131.597656 331.363281 131.125 331.324219 130.652344 331.234375 C 130.179688 331.148438 129.722656 331.015625 129.277344 330.835938 C 128.832031 330.65625 128.40625 330.433594 128.003906 330.171875 C 127.605469 329.90625 127.234375 329.605469 126.890625 329.269531 C 126.550781 328.933594 126.246094 328.566406 125.976562 328.167969 C 125.707031 327.769531 125.480469 327.351562 125.292969 326.90625 C 125.109375 326.464844 124.96875 326.007812 124.875 325.535156 C 124.78125 325.066406 124.734375 324.589844 124.734375 324.109375 C 124.734375 323.628906 124.78125 323.15625 124.875 322.683594 C 124.96875 322.214844 125.109375 321.757812 125.292969 321.3125 C 125.480469 320.871094 125.707031 320.453125 125.976562 320.054688 C 126.246094 319.65625 126.550781 319.289062 126.890625 318.949219 C 127.234375 318.613281 127.605469 318.3125 128.003906 318.050781 C 128.40625 317.785156 128.832031 317.566406 129.277344 317.386719 C 129.722656 317.207031 130.179688 317.074219 130.652344 316.984375 C 131.125 316.898438 131.597656 316.855469 132.078125 316.863281 L 242.921875 316.863281 C 243.402344 316.855469 243.875 316.898438 244.347656 316.984375 C 244.820312 317.074219 245.277344 317.207031 245.722656 317.386719 C 246.167969 317.566406 246.59375 317.785156 246.992188 318.050781 C 247.394531 318.3125 247.765625 318.613281 248.109375 318.949219 C 248.449219 319.289062 248.753906 319.65625 249.023438 320.054688 C 249.292969 320.453125 249.519531 320.871094 249.703125 321.3125 C 249.890625 321.757812 250.03125 322.214844 250.125 322.683594 C 250.21875 323.15625 250.265625 323.628906 250.265625 324.109375 C 250.265625 324.589844 250.21875 325.066406 250.125 325.535156 C 250.03125 326.007812 249.890625 326.464844 249.703125 326.90625 C 249.519531 327.347656 249.292969 327.769531 249.023438 328.167969 C 248.753906 328.566406 248.449219 328.933594 248.109375 329.269531 C 247.765625 329.605469 247.394531 329.90625 246.992188 330.171875 C 246.59375 330.433594 246.167969 330.65625 245.722656 330.835938 C 245.277344 331.015625 244.820312 331.148438 244.347656 331.234375 C 243.875 331.324219 243.402344 331.363281 242.921875 331.359375 Z M 242.921875 331.359375 " fill-opacity="1" fill-rule="nonzero"/></g><g clip-path="url(#4b271eb237)"><path fill="#ffffff" d="M 120.375 120.375 L 165.125 120.375 L 165.125 165.125 L 120.375 165.125 Z M 120.375 120.375 " fill-opacity="1" fill-rule="nonzero"/></g><g mask="url(#f82258c549)"><g transform="matrix(1, 0, 0, 1, 120, 209)"><g clip-path="url(#6266053819)"><g clip-path="url(#7834e078bb)"><path fill="#ffffff" d="M 0.375 0.875 L 45.125 0.875 L 45.125 45.625 L 0.375 45.625 Z M 0.375 0.875 " fill-opacity="1" fill-rule="nonzero"/></g></g></g></g><g mask="url(#c6f77c7881)"><g transform="matrix(1, 0, 0, 1, 165, 165)"><g clip-path="url(#3b5ddc5337)"><g clip-path="url(#b4561a51d0)"><path fill="#ffffff" d="M 0.125 0.125 L 44.875 0.125 L 44.875 44.875 L 0.125 44.875 Z M 0.125 0.125 " fill-opacity="1" fill-rule="nonzero"/></g></g></g></g><g clip-path="url(#731cea240b)"><path fill="#ffffff" d="M 209.875 120.375 L 254.625 120.375 L 254.625 165.125 L 209.875 165.125 Z M 209.875 120.375 " fill-opacity="1" fill-rule="nonzero"/></g><g mask="url(#15984d5fe6)"><g transform="matrix(1, 0, 0, 1, 209, 209)"><g clip-path="url(#933840e13e)"><g clip-path="url(#fc82b6ce6d)"><path fill="#ffffff" d="M 0.875 0.875 L 45.625 0.875 L 45.625 45.625 L 0.875 45.625 Z M 0.875 0.875 " fill-opacity="1" fill-rule="nonzero"/></g></g></g></g><g fill="#ffffff" fill-opacity="1"><g transform="translate(58.421588, 102.958827)"><g><path d="M 9.8125 -29.578125 L 9.8125 0 L 2.609375 0 L 2.609375 -29.578125 Z M 9.8125 -29.578125 "/></g></g></g><g fill="#ffffff" fill-opacity="1"><g transform="translate(70.85055, 102.958827)"><g><path d="M 16.9375 -23.765625 C 19.695312 -23.765625 21.894531 -22.875 23.53125 -21.09375 C 25.175781 -19.3125 26 -16.859375 26 -13.734375 L 26 0 L 18.84375 0 L 18.84375 -12.765625 C 18.84375 -14.335938 18.429688 -15.554688 17.609375 -16.421875 C 16.796875 -17.296875 15.703125 -17.734375 14.328125 -17.734375 C 12.953125 -17.734375 11.851562 -17.296875 11.03125 -16.421875 C 10.21875 -15.554688 9.8125 -14.335938 9.8125 -12.765625 L 9.8125 0 L 2.609375 0 L 2.609375 -23.515625 L 9.8125 -23.515625 L 9.8125 -20.390625 C 10.550781 -21.429688 11.535156 -22.253906 12.765625 -22.859375 C 14.003906 -23.460938 15.394531 -23.765625 16.9375 -23.765625 Z M 16.9375 -23.765625 "/></g></g></g><g fill="#ffffff" fill-opacity="1"><g transform="translate(99.247567, 102.958827)"><g><path d="M 12.171875 0.34375 C 10.128906 0.34375 8.304688 -0.00390625 6.703125 -0.703125 C 5.097656 -1.410156 3.832031 -2.375 2.90625 -3.59375 C 1.976562 -4.820312 1.457031 -6.195312 1.34375 -7.71875 L 8.46875 -7.71875 C 8.550781 -6.894531 8.929688 -6.226562 9.609375 -5.71875 C 10.285156 -5.21875 11.113281 -4.96875 12.09375 -4.96875 C 12.988281 -4.96875 13.679688 -5.144531 14.171875 -5.5 C 14.671875 -5.851562 14.921875 -6.3125 14.921875 -6.875 C 14.921875 -7.539062 14.566406 -8.035156 13.859375 -8.359375 C 13.160156 -8.679688 12.023438 -9.039062 10.453125 -9.4375 C 8.765625 -9.832031 7.359375 -10.242188 6.234375 -10.671875 C 5.109375 -11.109375 4.140625 -11.796875 3.328125 -12.734375 C 2.515625 -13.679688 2.109375 -14.957031 2.109375 -16.5625 C 2.109375 -17.90625 2.476562 -19.128906 3.21875 -20.234375 C 3.96875 -21.347656 5.066406 -22.226562 6.515625 -22.875 C 7.960938 -23.53125 9.679688 -23.859375 11.671875 -23.859375 C 14.617188 -23.859375 16.941406 -23.125 18.640625 -21.65625 C 20.347656 -20.195312 21.328125 -18.257812 21.578125 -15.84375 L 14.921875 -15.84375 C 14.804688 -16.65625 14.445312 -17.300781 13.84375 -17.78125 C 13.238281 -18.257812 12.445312 -18.5 11.46875 -18.5 C 10.625 -18.5 9.972656 -18.335938 9.515625 -18.015625 C 9.066406 -17.691406 8.84375 -17.25 8.84375 -16.6875 C 8.84375 -16.007812 9.203125 -15.503906 9.921875 -15.171875 C 10.640625 -14.835938 11.757812 -14.5 13.28125 -14.15625 C 15.019531 -13.707031 16.4375 -13.265625 17.53125 -12.828125 C 18.625 -12.390625 19.582031 -11.6875 20.40625 -10.71875 C 21.238281 -9.75 21.671875 -8.453125 21.703125 -6.828125 C 21.703125 -5.453125 21.316406 -4.222656 20.546875 -3.140625 C 19.773438 -2.054688 18.664062 -1.203125 17.21875 -0.578125 C 15.769531 0.0351562 14.085938 0.34375 12.171875 0.34375 Z M 12.171875 0.34375 "/></g></g></g><g fill="#ffffff" fill-opacity="1"><g transform="translate(122.757265, 102.958827)"><g><path d="M 15.71875 -6.109375 L 15.71875 0 L 12.046875 0 C 9.441406 0 7.40625 -0.632812 5.9375 -1.90625 C 4.476562 -3.1875 3.75 -5.273438 3.75 -8.171875 L 3.75 -17.53125 L 0.890625 -17.53125 L 0.890625 -23.515625 L 3.75 -23.515625 L 3.75 -29.25 L 10.953125 -29.25 L 10.953125 -23.515625 L 15.671875 -23.515625 L 15.671875 -17.53125 L 10.953125 -17.53125 L 10.953125 -8.09375 C 10.953125 -7.382812 11.117188 -6.875 11.453125 -6.5625 C 11.796875 -6.257812 12.359375 -6.109375 13.140625 -6.109375 Z M 15.71875 -6.109375 "/></g></g></g><g fill="#ffffff" fill-opacity="1"><g transform="translate(139.862888, 102.958827)"><g><path d="M 1.1875 -11.796875 C 1.1875 -14.210938 1.640625 -16.332031 2.546875 -18.15625 C 3.460938 -19.988281 4.707031 -21.394531 6.28125 -22.375 C 7.851562 -23.363281 9.609375 -23.859375 11.546875 -23.859375 C 13.203125 -23.859375 14.65625 -23.519531 15.90625 -22.84375 C 17.15625 -22.164062 18.117188 -21.28125 18.796875 -20.1875 L 18.796875 -23.515625 L 26 -23.515625 L 26 0 L 18.796875 0 L 18.796875 -3.328125 C 18.085938 -2.234375 17.109375 -1.347656 15.859375 -0.671875 C 14.609375 0.00390625 13.15625 0.34375 11.5 0.34375 C 9.59375 0.34375 7.851562 -0.15625 6.28125 -1.15625 C 4.707031 -2.15625 3.460938 -3.570312 2.546875 -5.40625 C 1.640625 -7.25 1.1875 -9.378906 1.1875 -11.796875 Z M 18.796875 -11.75 C 18.796875 -13.550781 18.296875 -14.972656 17.296875 -16.015625 C 16.296875 -17.054688 15.082031 -17.578125 13.65625 -17.578125 C 12.21875 -17.578125 11 -17.0625 10 -16.03125 C 9.007812 -15.007812 8.515625 -13.597656 8.515625 -11.796875 C 8.515625 -10.003906 9.007812 -8.578125 10 -7.515625 C 11 -6.460938 12.21875 -5.9375 13.65625 -5.9375 C 15.082031 -5.9375 16.296875 -6.457031 17.296875 -7.5 C 18.296875 -8.539062 18.796875 -9.957031 18.796875 -11.75 Z M 18.796875 -11.75 "/></g></g></g><g fill="#ffffff" fill-opacity="1"><g transform="translate(168.470564, 102.958827)"><g><path d="M 9.8125 -31.1875 L 9.8125 0 L 2.609375 0 L 2.609375 -31.1875 Z M 9.8125 -31.1875 "/></g></g></g><g fill="#ffffff" fill-opacity="1"><g transform="translate(180.899526, 102.958827)"><g><path d="M 9.8125 -31.1875 L 9.8125 0 L 2.609375 0 L 2.609375 -31.1875 Z M 9.8125 -31.1875 "/></g></g></g><g fill="#ffffff" fill-opacity="1"><g transform="translate(193.32848, 102.958827)"><g><path d="M 43.328125 -29.578125 L 35.609375 0 L 26.890625 0 L 22.171875 -19.46875 L 17.28125 0 L 8.546875 0 L 1.046875 -29.578125 L 8.765625 -29.578125 L 13.015625 -8.046875 L 18.296875 -29.578125 L 26.21875 -29.578125 L 31.265625 -8.046875 L 35.5625 -29.578125 Z M 43.328125 -29.578125 "/></g></g></g><g fill="#ffffff" fill-opacity="1"><g transform="translate(237.651423, 102.958827)"><g><path d="M 6.234375 -25.953125 C 4.972656 -25.953125 3.941406 -26.320312 3.140625 -27.0625 C 2.335938 -27.8125 1.9375 -28.734375 1.9375 -29.828125 C 1.9375 -30.953125 2.335938 -31.882812 3.140625 -32.625 C 3.941406 -33.375 4.972656 -33.75 6.234375 -33.75 C 7.472656 -33.75 8.492188 -33.375 9.296875 -32.625 C 10.097656 -31.882812 10.5 -30.953125 10.5 -29.828125 C 10.5 -28.734375 10.097656 -27.8125 9.296875 -27.0625 C 8.492188 -26.320312 7.472656 -25.953125 6.234375 -25.953125 Z M 9.8125 -23.515625 L 9.8125 0 L 2.609375 0 L 2.609375 -23.515625 Z M 9.8125 -23.515625 "/></g></g></g><g fill="#ffffff" fill-opacity="1"><g transform="translate(250.080377, 102.958827)"><g><path d="M 16.9375 -23.765625 C 19.695312 -23.765625 21.894531 -22.875 23.53125 -21.09375 C 25.175781 -19.3125 26 -16.859375 26 -13.734375 L 26 0 L 18.84375 0 L 18.84375 -12.765625 C 18.84375 -14.335938 18.429688 -15.554688 17.609375 -16.421875 C 16.796875 -17.296875 15.703125 -17.734375 14.328125 -17.734375 C 12.953125 -17.734375 11.851562 -17.296875 11.03125 -16.421875 C 10.21875 -15.554688 9.8125 -14.335938 9.8125 -12.765625 L 9.8125 0 L 2.609375 0 L 2.609375 -23.515625 L 9.8125 -23.515625 L 9.8125 -20.390625 C 10.550781 -21.429688 11.535156 -22.253906 12.765625 -22.859375 C 14.003906 -23.460938 15.394531 -23.765625 16.9375 -23.765625 Z M 16.9375 -23.765625 "/></g></g></g><g fill="#ffffff" fill-opacity="1"><g transform="translate(278.477402, 102.958827)"><g><path d="M 30.125 -18.453125 L 28.953125 -12.9375 L 34 -12.9375 L 34 -6.453125 L 27.5625 -6.453125 L 26.171875 0 L 19.421875 0 L 20.8125 -6.453125 L 13.828125 -6.453125 L 12.4375 0 L 5.6875 0 L 7.078125 -6.453125 L 0.84375 -6.453125 L 0.84375 -12.9375 L 8.46875 -12.9375 L 9.65625 -18.453125 L 3.546875 -18.453125 L 3.546875 -24.953125 L 11 -24.953125 L 12.34375 -31.1875 L 19.09375 -31.1875 L 17.734375 -24.953125 L 24.734375 -24.953125 L 26.078125 -31.1875 L 32.828125 -31.1875 L 31.484375 -24.953125 L 36.703125 -24.953125 L 36.703125 -18.453125 Z M 23.390625 -18.453125 L 16.390625 -18.453125 L 15.21875 -12.9375 L 22.203125 -12.9375 Z M 23.390625 -18.453125 "/></g></g></g></svg>